<?xml version="1.0" encoding="UTF-8"?>
<svg id="uuid-66021535-e246-4eaf-bcef-d8a730a7c874" data-name="Layer 1" xmlns="http://www.w3.org/2000/svg" width="282.285" height="184.638" viewBox="0 0 282.285 184.638">
  <defs>
    <style>
      .uuid-7ee47ad8-1327-4976-87b0-04e55ebcb673 {
        fill: #b8a57b;
      }
    </style>
  </defs>
  <path id="uuid-eb33d77e-4e1b-4d83-adf1-a7f18d173565" data-name="path1" class="uuid-7ee47ad8-1327-4976-87b0-04e55ebcb673" d="M189.186,44.015c-.347.333-.7.659-1.06.972l16.971,25.324-6.45-.863c-2.087-.279-3.928-1.516-4.975-3.344l-10.127-17.664c-.401.258-.809.51-1.223.748l16.237,29.524-6.457-1.298c-2.114-.428-3.901-1.835-4.805-3.792l-10.127-21.899c-.442.184-.89.353-1.346.517l10.616,24.026-4.928-.992c-2.318-.469-4.227-2.114-5.029-4.336l-6.185-17.168c-.469.095-.945.177-1.414.251l6.844,20.097-3.684-.741c-2.528-.51-4.54-2.413-5.199-4.9l-3.527-13.328h0c-.455.122-.904.258-1.346.408l4.085,16.618-2.637-.53c-2.739-.551-4.853-2.725-5.329-5.478l-1.461-8.448-2.522,5.845c-.279.652-.211,1.4.177,1.991l7.775,11.711c.109.163.17.347.184.544l.15,2.216,4.9,4.9h11.52v5.029l-2.454-2.454h-2.705l2.569,2.569-2.8,2.8v-2.8l-2.576-2.569h-2.474l-2.576,2.569v2.216l-2.99-2.997,2.596-2.528-4.574-4.574-1.645.184c-.258.027-.523-.034-.741-.177l-9.617-6.389,6.912,9.332,11.004,14.864h-4.642c-2.63,0-5.023-1.529-6.131-3.915l-4.037-8.679c-.381.177-.768.347-1.155.496l6.477,16.325h-2.236c-3.269,0-6.069-2.338-6.654-5.553l-1.747-9.583c-.381.068-.761.129-1.155.177l1.461,11.445c.279,2.202-.537,4.397-2.182,5.886l-2.066,1.862-2.066-1.862c-1.645-1.482-2.46-3.684-2.182-5.879l1.461-11.445c-.387-.048-.768-.109-1.155-.177l-1.747,9.583c-.585,3.215-3.385,5.553-6.654,5.553h-2.236l6.477-16.325c-.387-.15-.775-.319-1.155-.496l-4.037,8.679c-1.108,2.386-3.5,3.915-6.131,3.915h-4.642l11.004-14.864,6.912-9.332-9.617,6.389c-.217.143-.483.211-.741.177l-1.645-.184-4.574,4.574,2.596,2.528-2.99,2.997v-2.216l-2.576-2.569h-2.474l-2.576,2.569v2.8l-2.8-2.8,2.569-2.569h-2.705l-2.454,2.454v-5.029h11.52l4.9-4.9.156-2.216c.014-.19.075-.381.184-.537l7.775-11.71c.394-.591.462-1.339.177-1.991l-2.522-5.852h0l-1.461,8.448c-.476,2.753-2.596,4.928-5.335,5.478l-2.63.53,4.085-16.624c-.442-.15-.897-.279-1.353-.408l-3.521,13.335c-.659,2.494-2.678,4.397-5.206,4.9l-3.684.741,6.851-20.097c-.476-.068-.945-.156-1.414-.245l-6.185,17.175c-.802,2.229-2.712,3.874-5.029,4.336l-4.928.992,10.609-24.04c-.455-.156-.897-.333-1.339-.51l-10.127,21.892c-.904,1.957-2.691,3.364-4.805,3.792l-6.464,1.298,16.251-29.524c-.415-.238-.822-.489-1.223-.754l-10.127,17.671c-1.047,1.828-2.889,3.065-4.975,3.344l-6.45.863,16.971-25.331c-.36-.313-.714-.639-1.067-.972l-9.556,13.736c-1.176,1.692-3.052,2.753-5.111,2.889l-6.341.421,17.141-21.3c-.299-.374-.585-.761-.87-1.155l-9.508,11.405c-1.285,1.543-3.188,2.433-5.193,2.433h-6.321l30.381-31.658c1.638-1.706,3.894-2.671,6.26-2.671h6.776c1.815,0,3.283,1.468,3.283,3.283v3.826c0,3.086,1.033,5.927,2.759,8.203,2.474,3.262,6.396,5.369,10.813,5.369.979,0,1.937-.109,2.861-.306.734-.156,1.332-.7,1.529-1.427l2.406-8.706c.034-.156.041-.319.014-.476-.163-1.053-1.59-1.713-3.194-1.468-1.285.19-2.444.807-2.744,1.726,0,0-.519-1.387-.532-2.42-.02-1.332.551-2.073,1.842-2.725l2.243-1.053c1.414-1.298,3.711-2.134,6.321-2.134,4.01,0,7.313,1.991,7.735,4.567l.041.313,1.624,12.22c.116.87.788,1.57,1.658,1.713.714.116,1.441.177,2.189.177,4.411,0,8.333-2.1,10.813-5.369,1.733-2.277,2.759-5.118,2.759-8.203v-3.826c0-1.815,1.468-3.283,3.283-3.283h6.776c2.365,0,4.622.965,6.26,2.671l30.381,31.658h-6.307c-2.005,0-3.908-.89-5.193-2.433l-9.515-11.405c-.279.387-.564.775-.863,1.155l17.134,21.3-6.348-.421c-2.053-.136-3.935-1.196-5.111-2.889l-9.556-13.736h-.007Z"/>
  <polygon id="uuid-f6424b14-6dc0-4cae-88f7-e96178878750" data-name="polygon1" class="uuid-7ee47ad8-1327-4976-87b0-04e55ebcb673" points="138.661 12.37 142.677 9.447 146.694 12.37 145.158 7.646 149.175 4.724 144.213 4.724 142.677 0 141.141 4.724 136.18 4.724 140.197 7.646 138.661 12.37"/>
  <polygon id="uuid-15f5e304-d4a1-4a34-9a6d-54ef1fd78551" data-name="polygon2" class="uuid-7ee47ad8-1327-4976-87b0-04e55ebcb673" points="158.731 12.492 161.3 16.74 161.715 11.785 166.547 10.65 161.973 8.727 162.387 3.779 159.145 7.537 154.565 5.614 157.14 9.869 153.892 13.627 158.731 12.492"/>
  <polygon id="uuid-a5db63f0-6670-4d45-8f6f-a7adebcee8f6" data-name="polygon3" class="uuid-7ee47ad8-1327-4976-87b0-04e55ebcb673" points="123.64 11.792 124.007 16.747 126.624 12.526 131.443 13.709 128.235 9.916 130.844 5.696 126.257 7.571 123.049 3.779 123.416 8.727 118.814 10.609 123.64 11.792"/>
  <g>
    <path d="M70,130.02c-.468,0-.854-.144-1.161-.432-.306-.288-.459-.72-.459-1.296,0-.595.153-1.03.459-1.31.307-.279.693-.419,1.161-.419.504,0,.896.148,1.175.445.279.298.418.726.418,1.283,0,.54-.144.963-.432,1.269-.288.307-.675.459-1.161.459ZM74.644,130.02c-.504,0-.9-.152-1.188-.459-.288-.306-.432-.729-.432-1.269,0-.558.144-.985.432-1.283.288-.297.684-.445,1.188-.445s.895.153,1.174.459c.279.307.419.729.419,1.27,0,.522-.14.94-.419,1.255-.279.315-.67.473-1.174.473Z"/>
    <path d="M73.321,147.867c-1.512,0-2.808-.252-3.888-.756-1.08-.504-1.904-1.232-2.471-2.188-.567-.953-.851-2.097-.851-3.429,0-1.422.315-2.642.945-3.658.63-1.017,1.512-1.796,2.646-2.336,1.134-.54,2.457-.81,3.969-.81h1.431v-1.593h2.889v12.284h3.186c.09,0,.135.037.135.108v2.241c0,.09-.045.135-.135.135h-7.857ZM75.13,145.382v-8.208h-1.377c-1.494,0-2.646.374-3.456,1.121s-1.215,1.813-1.215,3.199c0,1.26.364,2.224,1.093,2.889.729.667,1.769.999,3.119.999h1.836Z"/>
    <path d="M89.359,131.748c-.486,0-.873-.152-1.161-.459-.288-.306-.432-.729-.432-1.269,0-.558.14-.985.418-1.283.279-.297.67-.445,1.174-.445.522,0,.922.153,1.202.459.279.307.418.729.418,1.27,0,.522-.145.94-.432,1.255-.288.315-.684.473-1.188.473Z"/>
    <path d="M80.908,147.867c-.09,0-.135-.045-.135-.135v-2.241c0-.071.045-.108.135-.108h4.023c-.288-.359-.536-.751-.743-1.174-.207-.423-.365-.868-.473-1.337-.108-.468-.162-.936-.162-1.404,0-1.386.306-2.587.918-3.604.611-1.017,1.485-1.799,2.619-2.349,1.134-.549,2.475-.823,4.023-.823h3.969v13.176h-14.175ZM90.277,145.382h1.944v-8.208h-1.026c-.972,0-1.809.172-2.511.514-.702.342-1.233.837-1.593,1.484-.36.648-.54,1.432-.54,2.35,0,.846.14,1.557.418,2.133.279.576.698,1.008,1.256,1.296.558.288,1.242.432,2.052.432Z"/>
    <path d="M106.531,145.382c.09,0,.135.037.135.108v2.241c0,.09-.045.135-.135.135h-6.453v-20.52h2.943v18.035h3.51Z"/>
    <path d="M112.363,131.423c-.468,0-.854-.144-1.161-.432-.306-.288-.459-.72-.459-1.296,0-.595.153-1.03.459-1.31.307-.279.693-.419,1.161-.419.504,0,.896.148,1.175.445.279.298.418.726.418,1.283,0,.54-.144.963-.432,1.269-.288.307-.675.459-1.161.459ZM117.007,131.423c-.504,0-.9-.152-1.188-.459-.288-.306-.432-.729-.432-1.269,0-.558.144-.985.432-1.283.288-.297.684-.445,1.188-.445s.895.153,1.174.459c.279.307.419.729.419,1.27,0,.522-.14.94-.419,1.255-.279.315-.67.473-1.174.473Z"/>
    <path d="M123.46,145.382c.09,0,.135.046.135.136v2.24c0,.072-.045.108-.135.108h-17.199c-.09,0-.135-.045-.135-.135v-2.241c0-.071.045-.108.135-.108h4.023c-.288-.359-.536-.751-.743-1.174-.207-.423-.365-.868-.473-1.337-.108-.468-.162-.936-.162-1.404,0-1.403.306-2.609.918-3.617.611-1.008,1.485-1.786,2.619-2.336,1.134-.549,2.475-.823,4.023-.823h3.969v10.691h3.024ZM117.574,145.382v-8.208h-1.026c-.972,0-1.809.172-2.511.514-.702.342-1.233.837-1.593,1.484-.36.648-.54,1.44-.54,2.376,0,.828.14,1.53.418,2.106.279.576.698,1.008,1.256,1.296.558.288,1.242.432,2.052.432h1.944Z"/>
    <path d="M125.836,131.451c-.468,0-.855-.144-1.161-.432-.306-.288-.459-.72-.459-1.296,0-.595.153-1.03.459-1.31.306-.279.693-.419,1.161-.419.504,0,.896.153,1.174.459.279.307.418.729.418,1.27,0,.522-.139.94-.418,1.255-.279.315-.67.473-1.174.473ZM128.131,127.563c-.396,0-.733-.122-1.013-.364-.279-.243-.418-.635-.418-1.175s.14-.932.418-1.175c.279-.243.617-.364,1.013-.364.414,0,.76.131,1.04.392.279.261.418.644.418,1.147s-.14.887-.418,1.147c-.279.261-.626.392-1.04.392ZM130.48,131.451c-.504,0-.9-.152-1.188-.459-.288-.306-.432-.729-.432-1.269,0-.558.144-.985.432-1.283.288-.297.684-.445,1.188-.445s.895.153,1.174.459c.279.307.418.729.418,1.27,0,.522-.14.94-.418,1.255-.279.315-.671.473-1.174.473Z"/>
    <path d="M123.19,147.867c-.09,0-.135-.045-.135-.135v-2.241c0-.071.045-.108.135-.108h4.32v-10.691h2.943v10.691h4.05c.09,0,.135.037.135.108v2.241c0,.09-.045.135-.135.135h-11.313Z"/>
    <path d="M134.233,147.867c-.09,0-.135-.045-.135-.135v-2.241c0-.071.045-.108.135-.108h3.51v-18.035h2.943v20.52h-6.453Z"/>
    <path d="M146.086,127.347h2.941v20.52h-2.941v-20.52Z"/>
    <path d="M166.228,131.748c-.469,0-.855-.144-1.161-.432s-.459-.72-.459-1.296c0-.595.153-1.03.459-1.31s.692-.419,1.161-.419c.504,0,.896.148,1.174.445.279.298.419.726.419,1.283,0,.54-.145.963-.433,1.269-.287.307-.675.459-1.16.459ZM170.872,131.748c-.504,0-.9-.152-1.188-.459-.289-.306-.433-.729-.433-1.269,0-.558.144-.985.433-1.283.287-.297.684-.445,1.188-.445s.896.153,1.175.459c.278.307.418.729.418,1.27,0,.522-.14.94-.418,1.255-.279.315-.671.473-1.175.473Z"/>
    <path d="M169.089,148.136c-2.052,0-3.636-.535-4.752-1.606-1.116-1.07-1.674-2.614-1.674-4.63,0-.684.067-1.337.202-1.958.136-.621.347-1.229.635-1.822.558-1.151,1.332-2.056,2.322-2.714.989-.656,2.105-.985,3.348-.985.576,0,1.13.081,1.661.243.53.162,1.039.405,1.525.729.665.45,1.237,1.017,1.714,1.7.478.685.847,1.437,1.107,2.255.261.819.392,1.67.392,2.552,0,2.052-.545,3.604-1.634,4.657s-2.704,1.579-4.847,1.579ZM169.117,145.653c1.17,0,2.043-.314,2.619-.945.576-.63.864-1.574.864-2.835,0-1.008-.145-1.881-.433-2.619-.288-.737-.693-1.318-1.215-1.741-.522-.423-1.144-.635-1.863-.635-.647,0-1.237.216-1.769.648-.53.432-.954,1.017-1.269,1.755-.315.738-.473,1.603-.473,2.592,0,1.261.292,2.205.878,2.835.584.631,1.471.945,2.659.945Z"/>
    <path d="M179.728,154.347c-.595,0-1.171-.077-1.729-.229-.558-.153-1.143-.41-1.755-.77l.999-2.079c.45.233.832.387,1.147.459.314.071.661.107,1.04.107.791,0,1.412-.311,1.862-.932s.675-1.436.675-2.443v-13.77h2.862v13.743c0,1.224-.202,2.276-.607,3.158s-.985,1.562-1.741,2.039c-.756.477-1.674.716-2.754.716Z"/>
    <path d="M189.826,127.347h2.942v20.52h-2.942v-20.52Z"/>
    <path d="M201.41,131.532c-.486,0-.873-.152-1.161-.459-.287-.306-.432-.729-.432-1.269,0-.558.14-.985.418-1.283.279-.297.671-.445,1.175-.445.521,0,.922.153,1.201.459.279.307.419.729.419,1.27,0,.522-.145.94-.432,1.255-.289.315-.685.473-1.188.473Z"/>
    <path d="M197.873,154.347c-.595,0-1.171-.077-1.729-.229-.558-.153-1.143-.41-1.755-.77l.999-2.079c.45.233.832.387,1.147.459.314.071.661.107,1.04.107.791,0,1.412-.311,1.862-.932s.675-1.436.675-2.443v-13.77h2.862v13.743c0,1.224-.202,2.276-.607,3.158s-.985,1.562-1.741,2.039c-.756.477-1.674.716-2.754.716Z"/>
    <path d="M212.182,154.347c-1.026,0-1.958-.108-2.795-.324s-1.624-.559-2.362-1.026l1.242-2.187c.63.323,1.26.58,1.89.77.63.188,1.305.283,2.025.283,1.17,0,2.074-.311,2.714-.932.639-.621.958-1.454.958-2.497v-.567h-2.646c-1.927,0-3.412-.53-4.455-1.593-1.045-1.062-1.566-2.602-1.566-4.617,0-1.458.328-2.704.985-3.739s1.57-1.832,2.74-2.39,2.529-.837,4.077-.837h3.727v13.635c0,1.908-.572,3.389-1.715,4.441-1.144,1.053-2.75,1.58-4.819,1.58ZM215.854,145.382v-8.208h-1.08c-1.44,0-2.564.388-3.375,1.161-.81.774-1.215,1.863-1.215,3.268,0,1.296.274,2.25.823,2.861.549.612,1.391.918,2.524.918h2.322Z"/>
  </g>
  <g>
    <path d="M3.348,169.518l-.27,11.907c-.018.378.009.671.081.877.071.207.202.369.391.486s.473.221.851.311l.729.135-.135.811c-.846-.072-1.692-.108-2.538-.108-.774,0-1.593.036-2.457.108l.162-.811.432-.107c.522-.126.851-.298.986-.514.135-.216.211-.611.229-1.188l.378-12.637c.018-.323.004-.562-.041-.715s-.153-.288-.324-.405-.455-.229-.85-.338l-.594-.135.135-.81c.594.072,1.278.107,2.052.107.648,0,1.368-.035,2.16-.107l5.994,14.175,5.751-14.175c.396.054.81.081,1.242.081.252,0,.612-.018,1.08-.055l.324,15.094c.018.36.054.634.108.823.054.188.162.338.324.445.162.108.423.207.783.297l.621.162-.162.811c-.666-.072-1.629-.108-2.889-.108-1.17,0-2.205.036-3.105.108l.162-.811.594-.162c.45-.107.747-.274.891-.499s.207-.607.189-1.147l-.297-11.691-5.832,14.445h-.864l-6.291-14.661Z"/>
    <path d="M22.626,183.234l.486-.135c.486-.108.805-.261.958-.459.153-.198.229-.521.229-.972v-12.906c0-.306-.023-.54-.067-.702-.045-.162-.162-.301-.351-.419-.189-.116-.482-.22-.877-.311l-.513-.135.162-.81c.666.072,1.638.107,2.916.107,1.151,0,2.187-.035,3.105-.107l-.216.81-.459.135c-.486.108-.806.262-.958.459-.153.199-.229.522-.229.973v12.906c0,.306.022.54.068.701.044.162.157.302.337.419.18.117.468.221.864.311l.567.135-.162.811c-.702-.072-1.674-.108-2.916-.108-1.17,0-2.205.036-3.105.108l.162-.811Z"/>
    <path d="M30.753,183.234l.459-.107c.504-.126.841-.311,1.013-.554.171-.243.256-.652.256-1.229v-13.393c-.378-.233-.882-.449-1.512-.647l-.486-.108.135-.81c.756.072,1.503.107,2.241.107.54,0,1.161-.035,1.863-.107l11.367,13.257v-10.557c0-.414-.032-.72-.095-.918-.063-.198-.198-.365-.405-.5-.208-.135-.545-.247-1.013-.338l-.756-.135.162-.81c1.044.072,1.962.107,2.754.107.702,0,1.521-.026,2.457-.081l-.135.783-.405.108c-.522.145-.869.337-1.04.58-.171.243-.257.644-.257,1.202v14.903l-.756.162-12.852-14.958v12.15c0,.414.031.725.095.932.063.207.207.378.432.513.225.135.562.238,1.012.311l.729.135-.135.811c-1.08-.072-1.998-.108-2.754-.108-.774,0-1.611.036-2.511.108l.135-.811Z"/>
    <path d="M50.976,183.234l.486-.135c.486-.108.805-.261.958-.459.153-.198.229-.521.229-.972v-12.906c0-.306-.023-.54-.067-.702-.045-.162-.162-.301-.351-.419-.189-.116-.482-.22-.877-.311l-.513-.135.162-.81c.666.072,1.638.107,2.916.107,1.151,0,2.187-.035,3.105-.107l-.216.81-.459.135c-.486.108-.806.262-.958.459-.153.199-.229.522-.229.973v12.906c0,.306.022.54.068.701.044.162.157.302.337.419.18.117.468.221.864.311l.567.135-.162.811c-.702-.072-1.674-.108-2.916-.108-1.17,0-2.205.036-3.105.108l.162-.811Z"/>
    <path d="M61.222,183.95c-.783-.207-1.517-.526-2.2-.959l-.324-3.32.783-.243c.486,1.188,1.075,2.124,1.768,2.808.693.685,1.499,1.026,2.417,1.026s1.643-.288,2.174-.864c.531-.576.796-1.341.796-2.295,0-.864-.252-1.593-.756-2.188-.504-.594-1.323-1.259-2.457-1.997-.972-.595-1.751-1.152-2.335-1.675-.585-.521-1.031-1.089-1.336-1.7-.307-.612-.459-1.287-.459-2.025,0-.882.238-1.66.715-2.336.477-.675,1.111-1.188,1.903-1.539.792-.351,1.647-.526,2.565-.526.756,0,1.485.108,2.187.324.702.216,1.323.522,1.863.918l.216,2.997-.81.081c-.306-1.062-.751-1.877-1.336-2.443-.585-.567-1.292-.851-2.12-.851-.756,0-1.399.226-1.93.675-.531.45-.797,1.062-.797,1.836,0,.847.32,1.606.958,2.281.639.676,1.499,1.355,2.579,2.039.864.54,1.575,1.044,2.133,1.512.558.469,1.017,1.021,1.377,1.661.36.639.54,1.372.54,2.2,0,1.008-.266,1.886-.797,2.633s-1.233,1.313-2.106,1.7-1.822.581-2.848.581c-.792,0-1.58-.104-2.363-.311Z"/>
    <path d="M75.195,183.234l.594-.162c.432-.107.747-.211.945-.311.198-.099.328-.229.392-.392.063-.161.095-.396.095-.701v-13.041c0-.45-.068-.752-.203-.905-.135-.152-.392-.229-.77-.229h-2.727c-.468,0-.86.203-1.174.607-.315.405-.644,1.121-.986,2.146l-.756-.161.108-3.646.594-.351c.54.18,1.287.288,2.241.323,1.206.055,2.844.081,4.914.081,2.106,0,3.735-.026,4.887-.081.972-.035,1.728-.144,2.268-.323l.567.351.108,3.646-.729.161c-.342-1.025-.671-1.741-.985-2.146-.315-.404-.707-.607-1.175-.607h-2.727c-.36,0-.612.077-.756.229-.144.153-.216.455-.216.905v13.041c0,.288.036.513.108.675.072.162.207.302.405.418.198.117.504.221.918.311l.756.162-.135.811c-1.116-.072-2.214-.108-3.294-.108-1.224,0-2.367.036-3.429.108l.162-.811Z"/>
    <path d="M87.588,183.234l.513-.135c.486-.108.801-.261.945-.459s.216-.531.216-.999v-12.879c0-.324-.022-.562-.067-.716-.045-.152-.158-.292-.337-.418-.18-.126-.468-.226-.864-.298l-.513-.135.135-.81c.702.072,1.683.107,2.943.107.396,0,.945-.018,1.647-.054,1.062-.036,1.961-.054,2.7-.054,1.008,0,1.944.202,2.808.607.864.405,1.543.963,2.039,1.674.495.711.743,1.517.743,2.417,0,1.079-.329,2.016-.986,2.808s-1.525,1.377-2.605,1.755l2.97,4.186c.72.989,1.318,1.741,1.795,2.254.477.513.963.891,1.458,1.134.495.243,1.129.419,1.903.526l.054.567c-.27.108-.585.189-.945.243-.36.054-.702.081-1.026.081-1.116,0-2.007-.221-2.673-.662-.666-.44-1.35-1.165-2.052-2.173l-4.023-5.725-.351.027c-.342,0-.711-.022-1.107-.067s-.765-.121-1.107-.229v5.832c0,.324.027.567.081.729.054.162.176.298.365.405.189.108.49.207.904.297l.81.162-.162.811c-.972-.072-2.061-.108-3.267-.108-1.152,0-2.178.036-3.078.108l.135-.811ZM96.835,173.973c.729-.738,1.094-1.647,1.094-2.728,0-.701-.158-1.345-.473-1.93-.315-.585-.77-1.054-1.364-1.404-.594-.352-1.278-.526-2.052-.526-.828,0-1.409.099-1.742.297s-.5.513-.5.945v6.317c.594.091,1.161.135,1.701.135,1.494,0,2.605-.368,3.334-1.106Z"/>
    <path d="M107.136,183.234l.621-.162c.594-.144.981-.306,1.161-.485.18-.18.27-.486.27-.918v-5.94l-4.59-6.804c-.252-.396-.536-.725-.851-.985s-.688-.464-1.12-.608l-.513-.135.162-.783c.773.055,1.764.081,2.97.081,1.17,0,2.43-.035,3.78-.107l-.135.81-.702.162c-.54.145-.837.352-.891.621-.054.271.09.666.432,1.188l3.402,5.318,3.132-5.157c.252-.432.392-.765.418-.999.027-.233-.067-.422-.283-.566-.216-.144-.594-.279-1.134-.405l-.621-.162.216-.783c1.062.055,2.042.081,2.943.081.882,0,1.827-.026,2.835-.081l-.135.783-.54.135c-.504.108-.914.298-1.229.567-.315.271-.644.685-.985,1.242l-4.05,6.507v5.994c0,.468.09.792.27.972.18.181.558.324,1.134.433l.729.188-.135.783c-.792-.054-1.881-.081-3.267-.081-1.422,0-2.574.027-3.456.081l.162-.783Z"/>
    <path d="M130.437,183.166c-1.386-.765-2.462-1.836-3.227-3.213-.765-1.377-1.147-2.957-1.147-4.738,0-1.8.382-3.384,1.147-4.752.765-1.368,1.84-2.435,3.227-3.2,1.386-.765,2.979-1.147,4.778-1.147s3.398.383,4.793,1.147c1.395.766,2.479,1.832,3.254,3.2.773,1.368,1.16,2.952,1.16,4.752,0,1.781-.387,3.361-1.16,4.738-.775,1.377-1.859,2.448-3.254,3.213-1.395.766-2.992,1.147-4.793,1.147s-3.393-.382-4.778-1.147ZM138.456,182.438c.936-.549,1.697-1.378,2.281-2.484.586-1.107.879-2.471.879-4.091,0-1.296-.23-2.614-.689-3.955s-1.188-2.471-2.188-3.389c-.998-.918-2.236-1.377-3.711-1.377-1.08,0-2.094.274-3.039.823-.945.55-1.71,1.382-2.295,2.498s-.877,2.483-.877,4.104c0,1.296.234,2.61.702,3.942.468,1.332,1.201,2.457,2.2,3.375,1,.918,2.236,1.377,3.713,1.377,1.08,0,2.088-.274,3.023-.823Z"/>
    <path d="M145.962,183.234l.513-.135c.486-.108.801-.261.945-.459.144-.198.216-.531.216-.999v-12.879c0-.324-.023-.571-.067-.742-.046-.171-.162-.315-.352-.433-.188-.117-.473-.202-.851-.257l-.513-.135.135-.783c.738.055,1.719.081,2.943.081,3.905,0,6.75-.062,8.532-.188l.54.351.404,3.375-.81.189c-.36-.738-.662-1.296-.904-1.674-.243-.378-.482-.648-.716-.811-.234-.162-.504-.243-.81-.243h-3.889c-.396,0-.68.077-.851.229-.171.153-.256.455-.256.905v6.021c1.583,0,3.239-.018,4.968-.054.233-.018.414-.055.54-.108s.243-.185.351-.392c.108-.206.207-.553.297-1.039l.136-.621.81.188c-.072.685-.108,1.521-.108,2.512,0,.936.036,1.836.108,2.7l-.81-.162-.108-.459c-.108-.45-.212-.774-.311-.973-.099-.197-.216-.328-.351-.392-.136-.062-.32-.103-.554-.121-1.152-.054-2.809-.081-4.968-.081v5.994c0,.324.026.567.081.729.054.162.175.298.364.405.188.108.49.207.904.297l.81.162-.161.811c-.973-.072-2.062-.108-3.268-.108-1.152,0-2.178.036-3.078.108l.136-.811Z"/>
    <path d="M170.775,183.22c-1.494-.729-2.642-1.769-3.442-3.118-.802-1.35-1.202-2.952-1.202-4.806,0-1.872.423-3.501,1.27-4.888.846-1.386,2.024-2.447,3.537-3.186,1.512-.738,3.23-1.107,5.157-1.107,1.062,0,2.065.1,3.01.297.945.198,1.732.415,2.362.648.63.234,1.035.414,1.216.54l.485,3.699-.729.135-.433-.675c-.72-1.296-1.543-2.223-2.47-2.781-.928-.558-2.138-.837-3.632-.837-1.387,0-2.605.315-3.658.945-1.054.63-1.873,1.517-2.457,2.659-.585,1.144-.878,2.471-.878,3.982,0,1.566.297,3.002.892,4.307.594,1.305,1.421,2.335,2.483,3.092,1.062.756,2.269,1.134,3.618,1.134,1.512,0,2.74-.271,3.686-.811s1.759-1.467,2.443-2.78l.405-.702.783.135-.514,3.699c-.18.145-.59.333-1.229.566-.639.234-1.431.45-2.376.648-.944.198-1.948.297-3.01.297-2.053,0-3.825-.364-5.319-1.094Z"/>
    <path d="M189.958,183.491c-1.107-.549-1.989-1.341-2.646-2.376s-.994-2.255-1.012-3.659l-.108-8.693c0-.306-.022-.54-.067-.702s-.162-.306-.352-.432c-.188-.126-.472-.226-.851-.298l-.539-.135.161-.81c.702.072,1.675.107,2.916.107,1.152,0,2.178-.035,3.078-.107l-.162.81-.432.135c-.522.108-.855.262-.999.459-.145.199-.216.522-.216.973l.081,8.343c0,1.17.22,2.183.661,3.037.441.855,1.058,1.517,1.85,1.985.792.468,1.701.701,2.728.701,1.043,0,1.988-.22,2.835-.661.846-.44,1.521-1.111,2.024-2.012.504-.899.756-1.998.756-3.294l.055-7.775c0-.414-.027-.725-.081-.932-.055-.207-.186-.378-.392-.514-.207-.135-.536-.238-.985-.311l-.783-.135.162-.81c1.08.072,2.007.107,2.78.107.738,0,1.539-.035,2.403-.107l-.135.81-.432.108c-.505.145-.842.333-1.013.566-.172.234-.257.64-.257,1.216l-.054,7.991c0,1.513-.334,2.813-.999,3.902-.666,1.089-1.549,1.917-2.646,2.483-1.098.567-2.321.851-3.672.851-1.332,0-2.552-.274-3.658-.823Z"/>
    <path d="M207.819,183.936c-1.71,0-3.006.036-3.888.108l.135-.811.514-.135c.468-.108.778-.261.931-.459.153-.198.229-.521.229-.972v-12.906c0-.324-.022-.562-.067-.716-.045-.152-.157-.292-.337-.418-.181-.126-.469-.226-.864-.298l-.54-.135.162-.81c.666.072,1.638.107,2.916.107,1.17,0,2.204-.035,3.104-.107l-.188.81-.486.135c-.485.108-.806.262-.958.459-.153.199-.229.522-.229.973v12.879c0,.504.071.842.216,1.013.144.171.414.256.81.256h3.646c.575,0,1.062-.188,1.458-.566.396-.378.818-1.071,1.269-2.079l.783.135-.432,3.375-.514.297c-1.422-.09-3.978-.135-7.668-.135Z"/>
    <path d="M219.51,183.234l.594-.162c.432-.107.747-.211.945-.311.197-.099.328-.229.392-.392.062-.161.094-.396.094-.701v-13.041c0-.45-.067-.752-.202-.905-.135-.152-.392-.229-.77-.229h-2.727c-.469,0-.86.203-1.175.607-.315.405-.644,1.121-.985,2.146l-.756-.161.107-3.646.594-.351c.54.18,1.287.288,2.241.323,1.206.055,2.844.081,4.914.081,2.106,0,3.735-.026,4.887-.081.973-.035,1.729-.144,2.269-.323l.566.351.108,3.646-.729.161c-.343-1.025-.671-1.741-.986-2.146-.314-.404-.706-.607-1.174-.607h-2.728c-.36,0-.612.077-.756.229-.145.153-.216.455-.216.905v13.041c0,.288.036.513.108.675.071.162.206.302.404.418.198.117.504.221.918.311l.756.162-.135.811c-1.116-.072-2.214-.108-3.294-.108-1.225,0-2.367.036-3.429.108l.162-.811Z"/>
    <path d="M237.046,183.491c-1.107-.549-1.989-1.341-2.646-2.376s-.994-2.255-1.012-3.659l-.108-8.693c0-.306-.022-.54-.067-.702s-.162-.306-.352-.432c-.188-.126-.472-.226-.851-.298l-.539-.135.161-.81c.702.072,1.675.107,2.916.107,1.152,0,2.178-.035,3.078-.107l-.162.81-.432.135c-.522.108-.855.262-.999.459-.145.199-.216.522-.216.973l.081,8.343c0,1.17.22,2.183.661,3.037.441.855,1.058,1.517,1.85,1.985.792.468,1.701.701,2.728.701,1.043,0,1.988-.22,2.835-.661.846-.44,1.521-1.111,2.024-2.012.504-.899.756-1.998.756-3.294l.055-7.775c0-.414-.027-.725-.081-.932-.055-.207-.186-.378-.392-.514-.207-.135-.536-.238-.985-.311l-.783-.135.162-.81c1.08.072,2.007.107,2.78.107.738,0,1.539-.035,2.403-.107l-.135.81-.432.108c-.505.145-.842.333-1.013.566-.172.234-.257.64-.257,1.216l-.054,7.991c0,1.513-.334,2.813-.999,3.902-.666,1.089-1.549,1.917-2.646,2.483-1.098.567-2.321.851-3.672.851-1.332,0-2.552-.274-3.658-.823Z"/>
    <path d="M251.127,183.234l.513-.135c.486-.108.801-.261.945-.459.144-.198.216-.531.216-.999v-12.879c0-.324-.023-.562-.067-.716-.046-.152-.158-.292-.338-.418s-.468-.226-.864-.298l-.513-.135.135-.81c.702.072,1.683.107,2.943.107.396,0,.945-.018,1.646-.054,1.062-.036,1.962-.054,2.7-.054,1.008,0,1.944.202,2.809.607.863.405,1.543.963,2.038,1.674s.742,1.517.742,2.417c0,1.079-.328,2.016-.985,2.808s-1.525,1.377-2.605,1.755l2.97,4.186c.72.989,1.318,1.741,1.796,2.254.477.513.963.891,1.458,1.134s1.129.419,1.903.526l.054.567c-.27.108-.585.189-.944.243-.36.054-.702.081-1.026.081-1.116,0-2.007-.221-2.673-.662-.666-.44-1.35-1.165-2.052-2.173l-4.023-5.725-.351.027c-.343,0-.712-.022-1.107-.067s-.765-.121-1.106-.229v5.832c0,.324.026.567.081.729.054.162.175.298.364.405.188.108.49.207.904.297l.81.162-.161.811c-.973-.072-2.062-.108-3.268-.108-1.152,0-2.178.036-3.078.108l.136-.811ZM260.375,173.973c.729-.738,1.094-1.647,1.094-2.728,0-.701-.158-1.345-.473-1.93-.315-.585-.77-1.054-1.363-1.404-.595-.352-1.278-.526-2.053-.526-.828,0-1.408.099-1.741.297s-.499.513-.499.945v6.317c.594.091,1.161.135,1.7.135,1.494,0,2.606-.368,3.335-1.106Z"/>
    <path d="M273.186,183.936c-1.692,0-3.006.036-3.942.108l.136-.811.513-.135c.486-.108.801-.261.945-.459.144-.198.216-.521.216-.972v-12.906c0-.324-.023-.571-.067-.742-.046-.171-.162-.315-.352-.433-.188-.117-.473-.202-.851-.257l-.513-.135.135-.783c.738.055,1.719.081,2.943.081,3.762,0,6.534-.062,8.315-.188l.54.351.352,3.375-.756.189c-.36-.738-.662-1.296-.905-1.674-.242-.378-.481-.648-.715-.811-.234-.162-.495-.243-.783-.243h-3.699c-.414,0-.702.081-.864.243-.161.162-.242.459-.242.892v6.074c2.033,0,3.617-.026,4.752-.081.252-.018.436-.054.553-.107s.226-.18.324-.378.185-.54.257-1.026l.135-.594.837.107c-.072.721-.107,1.576-.107,2.565,0,.954.035,1.846.107,2.673l-.837-.107-.081-.486c-.145-.63-.297-1.035-.459-1.215s-.405-.279-.729-.297c-1.135-.036-2.719-.063-4.752-.081v6.048c0,.468.067.783.202.945.135.161.409.242.823.242h4.158c.576,0,1.062-.188,1.458-.566.396-.378.811-1.071,1.242-2.079l.81.135-.459,3.375-.54.324c-1.368-.108-4.067-.162-8.1-.162Z"/>
  </g>
</svg>